<svg width="357" height="28" viewBox="0 0 357 28" fill="none" xmlns="http://www.w3.org/2000/svg">
<path d="M25.1307 10.6364H17.9205C17.8693 10.0398 17.733 9.49858 17.5114 9.01278C17.2983 8.52699 17 8.10937 16.6165 7.75994C16.2415 7.40199 15.7855 7.12926 15.2486 6.94176C14.7116 6.74574 14.1023 6.64773 13.4205 6.64773C12.2273 6.64773 11.2173 6.9375 10.3906 7.51705C9.57244 8.09659 8.95028 8.92756 8.52415 10.0099C8.10653 11.0923 7.89773 12.392 7.89773 13.9091C7.89773 15.5114 8.1108 16.8537 8.53693 17.9361C8.97159 19.0099 9.59801 19.8196 10.4162 20.3651C11.2344 20.902 12.2188 21.1705 13.3693 21.1705C14.0256 21.1705 14.6136 21.0895 15.1335 20.9276C15.6534 20.7571 16.1051 20.5142 16.4886 20.1989C16.8722 19.8835 17.1832 19.5043 17.4219 19.0611C17.669 18.6094 17.8352 18.1023 17.9205 17.5398L25.1307 17.5909C25.0455 18.6989 24.7344 19.8281 24.1974 20.9787C23.6605 22.1207 22.8977 23.1776 21.9091 24.1491C20.929 25.1122 19.7145 25.8878 18.2656 26.4759C16.8168 27.0639 15.1335 27.358 13.2159 27.358C10.8125 27.358 8.65625 26.8423 6.74716 25.8111C4.84659 24.7798 3.34233 23.2628 2.23438 21.2599C1.13494 19.2571 0.585227 16.8068 0.585227 13.9091C0.585227 10.9943 1.14773 8.53977 2.27273 6.54545C3.39773 4.54261 4.91477 3.02983 6.82386 2.0071C8.73295 0.975851 10.8636 0.460226 13.2159 0.460226C14.8693 0.460226 16.3906 0.686078 17.7798 1.13778C19.169 1.58949 20.3878 2.25 21.4361 3.11932C22.4844 3.98011 23.3281 5.04119 23.9673 6.30256C24.6065 7.56392 24.9943 9.00852 25.1307 10.6364ZM33.9293 27.3068C32.6765 27.3068 31.5685 27.1023 30.6055 26.6932C29.6509 26.2756 28.9009 25.6449 28.3555 24.8011C27.81 23.9574 27.5373 22.8835 27.5373 21.5795C27.5373 20.5057 27.7205 19.5895 28.087 18.831C28.4535 18.0639 28.9648 17.4375 29.6211 16.9517C30.2773 16.4659 31.0401 16.0952 31.9094 15.8395C32.7873 15.5838 33.7333 15.4176 34.7475 15.3409C35.8469 15.2557 36.729 15.1534 37.3938 15.0341C38.0671 14.9062 38.5529 14.7315 38.8512 14.5099C39.1495 14.2798 39.2987 13.9773 39.2987 13.6023V13.5511C39.2987 13.0398 39.1026 12.6477 38.7106 12.375C38.3185 12.1023 37.8157 11.9659 37.2021 11.9659C36.5288 11.9659 35.979 12.1151 35.5529 12.4134C35.1353 12.7031 34.8839 13.1506 34.7987 13.7557H28.3043C28.3896 12.5625 28.7688 11.4631 29.4421 10.4574C30.1239 9.44318 31.1168 8.63352 32.4208 8.02841C33.7248 7.41477 35.3526 7.10795 37.3043 7.10795C38.7106 7.10795 39.9719 7.27415 41.0884 7.60653C42.2049 7.9304 43.1552 8.38636 43.9393 8.97443C44.7234 9.55398 45.32 10.2358 45.729 11.0199C46.1467 11.7955 46.3555 12.6392 46.3555 13.5511V27H39.7589V24.2386H39.6055C39.2134 24.9716 38.7362 25.5639 38.1737 26.0156C37.6197 26.4673 36.9847 26.7955 36.2688 27C35.5614 27.2045 34.7816 27.3068 33.9293 27.3068ZM36.2305 22.858C36.7674 22.858 37.2702 22.7472 37.739 22.5256C38.2163 22.304 38.604 21.9844 38.9023 21.5668C39.2006 21.1491 39.3498 20.642 39.3498 20.0455V18.4091C39.1623 18.4858 38.962 18.5582 38.7489 18.6264C38.5444 18.6946 38.3228 18.7585 38.0842 18.8182C37.854 18.8778 37.6069 18.9332 37.3427 18.9844C37.087 19.0355 36.8185 19.0824 36.5373 19.125C35.9918 19.2102 35.5444 19.3509 35.195 19.5469C34.854 19.7344 34.5984 19.9688 34.4279 20.25C34.266 20.5227 34.185 20.8295 34.185 21.1705C34.185 21.7159 34.3768 22.1335 34.7603 22.4233C35.1438 22.7131 35.6339 22.858 36.2305 22.858ZM56.8352 27.2557C55.4375 27.2557 54.1506 26.8892 52.9744 26.1562C51.8068 25.4233 50.8693 24.3111 50.1619 22.8196C49.4631 21.3281 49.1136 19.4489 49.1136 17.1818C49.1136 14.8125 49.4801 12.8864 50.2131 11.4034C50.9545 9.92045 51.9091 8.83381 53.0767 8.14347C54.2528 7.45312 55.4886 7.10795 56.7841 7.10795C57.7557 7.10795 58.608 7.27841 59.3409 7.61932C60.0739 7.9517 60.6875 8.39915 61.1818 8.96165C61.6761 9.51562 62.0511 10.125 62.3068 10.7898H62.4091V0.818181H69.4659V27H62.4602V23.7784H62.3068C62.0341 24.4432 61.642 25.0398 61.1307 25.5682C60.6278 26.0881 60.0142 26.5014 59.2898 26.8082C58.5739 27.1065 57.7557 27.2557 56.8352 27.2557ZM59.4432 21.8352C60.0909 21.8352 60.6449 21.6477 61.1051 21.2727C61.5739 20.8892 61.9318 20.3523 62.179 19.6619C62.4347 18.9631 62.5625 18.1364 62.5625 17.1818C62.5625 16.2102 62.4347 15.3793 62.179 14.6889C61.9318 13.9901 61.5739 13.4574 61.1051 13.0909C60.6449 12.7159 60.0909 12.5284 59.4432 12.5284C58.7955 12.5284 58.2415 12.7159 57.7812 13.0909C57.3295 13.4574 56.9801 13.9901 56.733 14.6889C56.4943 15.3793 56.375 16.2102 56.375 17.1818C56.375 18.1534 56.4943 18.9886 56.733 19.6875C56.9801 20.3778 57.3295 20.9105 57.7812 21.2855C58.2415 21.652 58.7955 21.8352 59.4432 21.8352ZM78.402 27.3068C77.1491 27.3068 76.0412 27.1023 75.0781 26.6932C74.1236 26.2756 73.3736 25.6449 72.8281 24.8011C72.2827 23.9574 72.0099 22.8835 72.0099 21.5795C72.0099 20.5057 72.1932 19.5895 72.5597 18.831C72.9261 18.0639 73.4375 17.4375 74.0938 16.9517C74.75 16.4659 75.5128 16.0952 76.3821 15.8395C77.2599 15.5838 78.206 15.4176 79.2202 15.3409C80.3196 15.2557 81.2017 15.1534 81.8665 15.0341C82.5398 14.9062 83.0256 14.7315 83.3239 14.5099C83.6222 14.2798 83.7713 13.9773 83.7713 13.6023V13.5511C83.7713 13.0398 83.5753 12.6477 83.1832 12.375C82.7912 12.1023 82.2884 11.9659 81.6747 11.9659C81.0014 11.9659 80.4517 12.1151 80.0256 12.4134C79.608 12.7031 79.3565 13.1506 79.2713 13.7557H72.777C72.8622 12.5625 73.2415 11.4631 73.9148 10.4574C74.5966 9.44318 75.5895 8.63352 76.8935 8.02841C78.1974 7.41477 79.8253 7.10795 81.777 7.10795C83.1832 7.10795 84.4446 7.27415 85.5611 7.60653C86.6776 7.9304 87.6278 8.38636 88.4119 8.97443C89.196 9.55398 89.7926 10.2358 90.2017 11.0199C90.6193 11.7955 90.8281 12.6392 90.8281 13.5511V27H84.2315V24.2386H84.0781C83.6861 24.9716 83.2088 25.5639 82.6463 26.0156C82.0923 26.4673 81.4574 26.7955 80.7415 27C80.0341 27.2045 79.2543 27.3068 78.402 27.3068ZM80.7031 22.858C81.2401 22.858 81.7429 22.7472 82.2116 22.5256C82.6889 22.304 83.0767 21.9844 83.375 21.5668C83.6733 21.1491 83.8224 20.642 83.8224 20.0455V18.4091C83.6349 18.4858 83.4347 18.5582 83.2216 18.6264C83.017 18.6946 82.7955 18.7585 82.5568 18.8182C82.3267 18.8778 82.0795 18.9332 81.8153 18.9844C81.5597 19.0355 81.2912 19.0824 81.0099 19.125C80.4645 19.2102 80.017 19.3509 79.6676 19.5469C79.3267 19.7344 79.071 19.9688 78.9006 20.25C78.7386 20.5227 78.6577 20.8295 78.6577 21.1705C78.6577 21.7159 78.8494 22.1335 79.233 22.4233C79.6165 22.7131 80.1065 22.858 80.7031 22.858ZM112.149 13.7557H105.654C105.62 13.3551 105.48 13.0099 105.233 12.7202C104.985 12.4304 104.666 12.2088 104.274 12.0554C103.89 11.8935 103.464 11.8125 102.995 11.8125C102.39 11.8125 101.87 11.9233 101.436 12.1449C101.001 12.3665 100.788 12.6818 100.797 13.0909C100.788 13.3807 100.912 13.6491 101.167 13.8963C101.431 14.1435 101.939 14.3352 102.689 14.4716L106.677 15.1875C108.689 15.554 110.184 16.1719 111.164 17.0412C112.153 17.902 112.652 19.0568 112.66 20.5057C112.652 21.9034 112.234 23.1179 111.407 24.1491C110.589 25.1719 109.468 25.9645 108.045 26.527C106.63 27.081 105.015 27.358 103.2 27.358C100.2 27.358 97.8519 26.7443 96.1559 25.517C94.4684 24.2898 93.5266 22.6705 93.3306 20.6591H100.336C100.43 21.2812 100.737 21.7628 101.257 22.1037C101.785 22.4361 102.45 22.6023 103.251 22.6023C103.899 22.6023 104.431 22.4915 104.849 22.2699C105.275 22.0483 105.493 21.733 105.501 21.3239C105.493 20.9489 105.305 20.6506 104.939 20.429C104.581 20.2074 104.018 20.0284 103.251 19.892L99.7738 19.2784C97.771 18.929 96.271 18.2642 95.2738 17.2841C94.2766 16.304 93.7823 15.0426 93.7908 13.5C93.7823 12.1364 94.1403 10.9815 94.8647 10.0355C95.5977 9.08096 96.6417 8.35653 97.9968 7.86222C99.3604 7.35938 100.975 7.10795 102.842 7.10795C105.68 7.10795 107.917 7.69602 109.554 8.87216C111.199 10.0483 112.064 11.6761 112.149 13.7557ZM127.074 7.36364V12.4773H114.137V7.36364H127.074ZM116.642 2.65909H123.699V20.6847C123.699 20.9574 123.746 21.1875 123.84 21.375C123.934 21.554 124.078 21.6903 124.275 21.7841C124.471 21.8693 124.722 21.9119 125.029 21.9119C125.242 21.9119 125.489 21.8864 125.77 21.8352C126.06 21.7841 126.273 21.7415 126.409 21.7074L127.432 26.6676C127.117 26.7614 126.665 26.8764 126.077 27.0128C125.498 27.1491 124.807 27.2386 124.006 27.2812C122.387 27.3665 121.027 27.2003 119.928 26.7827C118.828 26.3565 118.002 25.6875 117.448 24.7756C116.894 23.8636 116.625 22.7216 116.642 21.3494V2.65909ZM129.954 27V7.36364H136.806V11.0966H137.011C137.369 9.71591 137.935 8.70597 138.711 8.06676C139.495 7.42756 140.411 7.10795 141.46 7.10795C141.766 7.10795 142.069 7.13352 142.367 7.18466C142.674 7.22727 142.968 7.29119 143.249 7.37642V13.3977C142.9 13.2784 142.469 13.1889 141.958 13.1293C141.447 13.0696 141.008 13.0398 140.641 13.0398C139.951 13.0398 139.329 13.1974 138.775 13.5128C138.229 13.8196 137.799 14.2543 137.484 14.8168C137.168 15.3707 137.011 16.0227 137.011 16.7727V27H129.954ZM153.898 27.358C151.768 27.358 149.944 26.9361 148.427 26.0923C146.91 25.2401 145.746 24.0554 144.937 22.5384C144.127 21.0128 143.722 19.2443 143.722 17.233C143.722 15.2216 144.127 13.4574 144.937 11.9403C145.746 10.4148 146.91 9.23011 148.427 8.38636C149.944 7.53409 151.768 7.10795 153.898 7.10795C156.029 7.10795 157.853 7.53409 159.37 8.38636C160.887 9.23011 162.05 10.4148 162.86 11.9403C163.67 13.4574 164.075 15.2216 164.075 17.233C164.075 19.2443 163.67 21.0128 162.86 22.5384C162.05 24.0554 160.887 25.2401 159.37 26.0923C157.853 26.9361 156.029 27.358 153.898 27.358ZM153.95 22.142C154.546 22.142 155.062 21.9418 155.496 21.5412C155.931 21.1406 156.268 20.5696 156.506 19.8281C156.745 19.0866 156.864 18.2045 156.864 17.1818C156.864 16.1506 156.745 15.2685 156.506 14.5355C156.268 13.794 155.931 13.223 155.496 12.8224C155.062 12.4219 154.546 12.2216 153.95 12.2216C153.319 12.2216 152.778 12.4219 152.326 12.8224C151.874 13.223 151.529 13.794 151.29 14.5355C151.052 15.2685 150.933 16.1506 150.933 17.1818C150.933 18.2045 151.052 19.0866 151.29 19.8281C151.529 20.5696 151.874 21.1406 152.326 21.5412C152.778 21.9418 153.319 22.142 153.95 22.142ZM184.082 27H174.008V0.818181H183.979C186.673 0.818181 188.999 1.34233 190.96 2.39062C192.928 3.4304 194.445 4.9304 195.511 6.89062C196.585 8.84233 197.121 11.1818 197.121 13.9091C197.121 16.6364 196.589 18.9801 195.523 20.9403C194.458 22.892 192.95 24.392 190.998 25.4403C189.046 26.4801 186.741 27 184.082 27ZM181.116 20.9659H183.826C185.121 20.9659 186.225 20.7571 187.137 20.3395C188.058 19.9219 188.756 19.2017 189.234 18.179C189.719 17.1562 189.962 15.733 189.962 13.9091C189.962 12.0852 189.715 10.6619 189.221 9.6392C188.735 8.61648 188.019 7.89631 187.073 7.47869C186.136 7.06108 184.985 6.85227 183.621 6.85227H181.116V20.9659ZM209.922 27.358C207.825 27.358 206.018 26.9574 204.501 26.1562C202.993 25.3466 201.829 24.1875 201.011 22.679C200.201 21.1619 199.797 19.3466 199.797 17.233C199.797 15.2045 200.206 13.4318 201.024 11.9148C201.842 10.3977 202.997 9.21733 204.488 8.37358C205.98 7.52983 207.74 7.10795 209.768 7.10795C211.251 7.10795 212.593 7.33807 213.795 7.7983C214.997 8.25852 216.024 8.92756 216.876 9.8054C217.728 10.6747 218.385 11.7315 218.845 12.9759C219.305 14.2202 219.535 15.6222 219.535 17.1818V18.8182H201.995V14.9318H213.041C213.032 14.3693 212.887 13.875 212.606 13.4489C212.333 13.0142 211.963 12.6776 211.494 12.4389C211.034 12.1918 210.51 12.0682 209.922 12.0682C209.35 12.0682 208.826 12.1918 208.349 12.4389C207.872 12.6776 207.488 13.0099 207.199 13.4361C206.917 13.8622 206.768 14.3608 206.751 14.9318V19.125C206.751 19.7557 206.883 20.3182 207.147 20.8125C207.412 21.3068 207.791 21.6946 208.285 21.9759C208.779 22.2571 209.376 22.3977 210.075 22.3977C210.561 22.3977 211.004 22.3295 211.404 22.1932C211.814 22.0568 212.163 21.8608 212.453 21.6051C212.743 21.3409 212.956 21.0256 213.092 20.6591H219.535C219.314 22.0227 218.789 23.2074 217.963 24.2131C217.136 25.2102 216.041 25.9858 214.677 26.5398C213.322 27.0852 211.737 27.358 209.922 27.358ZM236.286 27H228.615L237.257 0.818181H246.973L255.615 27H247.945L242.217 8.02841H242.013L236.286 27ZM234.854 16.6705H249.274V21.9886H234.854V16.6705ZM265.296 0.818181V27H258.239V0.818181H265.296ZM281.624 18.4091V7.36364H288.681V27H281.982V23.267H281.778C281.352 24.5199 280.606 25.5 279.54 26.2074C278.475 26.9062 277.21 27.2557 275.744 27.2557C274.371 27.2557 273.17 26.9403 272.138 26.3097C271.116 25.679 270.319 24.8097 269.748 23.7017C269.185 22.5937 268.9 21.3239 268.891 19.892V7.36364H275.948V18.4091C275.957 19.3807 276.204 20.1435 276.69 20.6974C277.184 21.2514 277.874 21.5284 278.761 21.5284C279.349 21.5284 279.856 21.4048 280.282 21.1577C280.717 20.902 281.049 20.544 281.279 20.0838C281.518 19.6151 281.633 19.0568 281.624 18.4091ZM299.327 15.9545V27H292.27V7.36364H298.969V11.0966H299.174C299.6 9.85227 300.35 8.87642 301.424 8.16903C302.506 7.46165 303.767 7.10795 305.208 7.10795C306.597 7.10795 307.803 7.42756 308.826 8.06676C309.857 8.69744 310.654 9.56676 311.216 10.6747C311.787 11.7827 312.069 13.0483 312.06 14.4716V27H305.003V15.9545C305.012 14.983 304.765 14.2202 304.262 13.6662C303.767 13.1122 303.077 12.8352 302.191 12.8352C301.611 12.8352 301.104 12.9631 300.669 13.2188C300.243 13.4659 299.915 13.8239 299.685 14.2926C299.455 14.7528 299.336 15.3068 299.327 15.9545ZM325.004 27.358C322.873 27.358 321.049 26.9361 319.532 26.0923C318.015 25.2401 316.852 24.0554 316.042 22.5384C315.233 21.0128 314.828 19.2443 314.828 17.233C314.828 15.2216 315.233 13.4574 316.042 11.9403C316.852 10.4148 318.015 9.23011 319.532 8.38636C321.049 7.53409 322.873 7.10795 325.004 7.10795C327.135 7.10795 328.958 7.53409 330.475 8.38636C331.993 9.23011 333.156 10.4148 333.966 11.9403C334.775 13.4574 335.18 15.2216 335.18 17.233C335.18 19.2443 334.775 21.0128 333.966 22.5384C333.156 24.0554 331.993 25.2401 330.475 26.0923C328.958 26.9361 327.135 27.358 325.004 27.358ZM325.055 22.142C325.652 22.142 326.167 21.9418 326.602 21.5412C327.037 21.1406 327.373 20.5696 327.612 19.8281C327.85 19.0866 327.97 18.2045 327.97 17.1818C327.97 16.1506 327.85 15.2685 327.612 14.5355C327.373 13.794 327.037 13.223 326.602 12.8224C326.167 12.4219 325.652 12.2216 325.055 12.2216C324.424 12.2216 323.883 12.4219 323.431 12.8224C322.98 13.223 322.635 13.794 322.396 14.5355C322.157 15.2685 322.038 16.1506 322.038 17.1818C322.038 18.2045 322.157 19.0866 322.396 19.8281C322.635 20.5696 322.98 21.1406 323.431 21.5412C323.883 21.9418 324.424 22.142 325.055 22.142ZM355.993 13.7557H349.498C349.464 13.3551 349.324 13.0099 349.076 12.7202C348.829 12.4304 348.51 12.2088 348.118 12.0554C347.734 11.8935 347.308 11.8125 346.839 11.8125C346.234 11.8125 345.714 11.9233 345.279 12.1449C344.845 12.3665 344.632 12.6818 344.64 13.0909C344.632 13.3807 344.755 13.6491 345.011 13.8963C345.275 14.1435 345.782 14.3352 346.532 14.4716L350.521 15.1875C352.532 15.554 354.028 16.1719 355.008 17.0412C355.997 17.902 356.495 19.0568 356.504 20.5057C356.495 21.9034 356.078 23.1179 355.251 24.1491C354.433 25.1719 353.312 25.9645 351.889 26.527C350.474 27.081 348.859 27.358 347.044 27.358C344.044 27.358 341.696 26.7443 340 25.517C338.312 24.2898 337.37 22.6705 337.174 20.6591H344.18C344.274 21.2812 344.581 21.7628 345.1 22.1037C345.629 22.4361 346.294 22.6023 347.095 22.6023C347.743 22.6023 348.275 22.4915 348.693 22.2699C349.119 22.0483 349.336 21.733 349.345 21.3239C349.336 20.9489 349.149 20.6506 348.782 20.429C348.424 20.2074 347.862 20.0284 347.095 19.892L343.618 19.2784C341.615 18.929 340.115 18.2642 339.118 17.2841C338.12 16.304 337.626 15.0426 337.635 13.5C337.626 12.1364 337.984 10.9815 338.708 10.0355C339.441 9.08096 340.485 8.35653 341.841 7.86222C343.204 7.35938 344.819 7.10795 346.686 7.10795C349.524 7.10795 351.761 7.69602 353.397 8.87216C355.042 10.0483 355.907 11.6761 355.993 13.7557Z" fill="#5E60CE"/>
</svg>
